<svg width="35" height="35" viewBox="0 0 35 35" fill="none" xmlns="http://www.w3.org/2000/svg">
<path d="M26.2793 15.4792C25.801 15.9622 25.4347 16.5451 25.2065 17.1864C24.9783 17.8277 24.8938 18.5117 24.9591 19.1895L24.9364 19.1667C25.0035 19.9645 24.8963 20.7675 24.6223 21.5194C24.3482 22.2714 23.914 22.9543 23.3499 23.5205C22.7857 24.0867 22.1052 24.5225 21.3559 24.7975C20.6066 25.0725 19.8066 25.18 19.0116 25.1127L19.0343 25.1355C18.0833 25.0467 17.1282 25.2544 16.2991 25.7303C15.4701 26.2061 14.8075 26.9271 14.4016 27.7947C13.9958 28.6624 13.8665 29.6346 14.0314 30.5787C14.1962 31.5228 14.6472 32.3929 15.3229 33.0704C15.9985 33.7479 16.8659 34.1997 17.8068 34.3643C18.7477 34.5289 19.7163 34.3983 20.5805 33.9902C21.4447 33.5821 22.1625 32.9165 22.6359 32.084C23.1094 31.2515 23.3154 30.2928 23.2261 29.3385L23.2501 29.3613C23.183 28.5635 23.2901 27.7605 23.5642 27.0085C23.8382 26.2566 24.2724 25.5736 24.8366 25.0075C25.4007 24.4413 26.0812 24.0055 26.8305 23.7305C27.5798 23.4555 28.3798 23.3479 29.1748 23.4153L29.1509 23.3925C29.9277 23.4626 30.7096 23.3348 31.4241 23.0209C32.1386 22.707 32.7625 22.2171 33.2382 21.5968C33.7138 20.9764 34.0257 20.2456 34.145 19.472C34.2642 18.6985 34.187 17.9072 33.9204 17.1716C33.6538 16.436 33.2065 15.7798 32.62 15.2639C32.0334 14.748 31.3266 14.389 30.5649 14.2202C29.8033 14.0514 29.0116 14.0783 28.2631 14.2984C27.5146 14.5185 26.8336 14.9247 26.2831 15.4792H26.2793Z" fill="#1E1B1B"/>
<path d="M16.9678 22.1486L16.9439 22.1258C17.6196 22.1941 18.3019 22.1109 18.9417 21.8822C19.5814 21.6534 20.1624 21.2848 20.6428 20.8031C21.1232 20.3213 21.4909 19.7384 21.7193 19.0966C21.9478 18.4548 22.0312 17.77 21.9636 17.0918L21.9876 17.1146C21.9205 16.3168 22.0277 15.5138 22.3017 14.7619C22.5757 14.0099 23.01 13.327 23.5741 12.7608C24.1383 12.1946 24.8188 11.7588 25.568 11.4838C26.3173 11.2088 27.1174 11.1013 27.9124 11.1686L27.8884 11.1458C28.8395 11.2354 29.7949 11.0285 30.6245 10.5531C31.454 10.0777 32.1172 9.35715 32.5236 8.48961C32.9301 7.62206 33.06 6.64981 32.8956 5.70545C32.7312 4.7611 32.2806 3.89062 31.6052 3.21275C30.9297 2.53487 30.0623 2.08261 29.1214 1.91765C28.1804 1.75268 27.2116 1.88304 26.3471 2.29095C25.4827 2.69886 24.7647 3.36446 24.291 4.19696C23.8174 5.02946 23.6111 5.98834 23.7004 6.94279L23.6777 6.91872C23.7451 7.71663 23.638 8.51966 23.3641 9.27175C23.0901 10.0238 22.6559 10.7068 22.0917 11.2731C21.5275 11.8393 20.8469 12.2751 20.0975 12.55C19.3481 12.8249 18.548 12.9323 17.7529 12.8648L17.7757 12.8888C17.1 12.8205 16.4176 12.9037 15.7779 13.1325C15.1381 13.3613 14.5571 13.7298 14.0767 14.2116C13.5963 14.6933 13.2286 15.2762 13.0002 15.918C12.7717 16.5599 12.6883 17.2446 12.7559 17.9228L12.7332 17.9C12.8 18.6978 12.6927 19.5006 12.4186 20.2525C12.1445 21.0044 11.7103 21.6872 11.1462 22.2534C10.5821 22.8195 9.90168 23.2553 9.15248 23.5304C8.40329 23.8054 7.60332 23.9132 6.80837 23.846L6.83109 23.8688C5.88004 23.7792 4.92459 23.9862 4.09507 24.4615C3.26554 24.9369 2.60232 25.6575 2.19587 26.525C1.78941 27.3926 1.65952 28.3648 1.82389 29.3092C1.98827 30.2535 2.43892 31.124 3.11437 31.8019C3.78982 32.4798 4.65719 32.932 5.59817 33.097C6.53915 33.262 7.50793 33.1316 8.37237 32.7237C9.23682 32.3158 9.95484 31.6502 10.4285 30.8177C10.9022 29.9852 11.1084 29.0263 11.0191 28.0719L11.0431 28.0947C10.976 27.2968 11.0831 26.4939 11.3572 25.7419C11.6312 24.9899 12.0654 24.307 12.6296 23.7408C13.1937 23.1746 13.8742 22.7389 14.6235 22.4639C15.3728 22.1889 16.1728 22.0813 16.9678 22.1486Z" fill="#1E1B1B"/>
<path d="M8.50874 19.6063C8.98714 19.1234 9.35341 18.5405 9.58142 17.8991C9.80942 17.2578 9.89353 16.5738 9.82774 15.896L9.85172 15.9188C9.78456 15.1208 9.89181 14.3176 10.166 13.5654C10.4401 12.8132 10.8746 12.1302 11.439 11.564C12.0035 10.9977 12.6843 10.562 13.4339 10.2872C14.1835 10.0124 14.9838 9.90507 15.779 9.97281L15.7551 9.95001C16.7058 10.0394 17.6608 9.8323 18.49 9.35698C19.3191 8.88166 19.982 8.16124 20.3882 7.29396C20.7944 6.42669 20.9242 5.45479 20.7598 4.51079C20.5954 3.56679 20.1449 2.69664 19.4697 2.01902C18.7945 1.34139 17.9275 0.889272 16.9868 0.724314C16.0462 0.559355 15.0778 0.689589 14.2136 1.09725C13.3494 1.50492 12.6316 2.17016 12.158 3.00228C11.6843 3.8344 11.478 4.79287 11.5671 5.747L11.5443 5.7242C11.6114 6.52205 11.5043 7.32499 11.2302 8.07697C10.9562 8.82895 10.522 9.51186 9.95783 10.078C9.39368 10.6442 8.71321 11.08 7.96392 11.355C7.21462 11.63 6.41455 11.7376 5.61955 11.6702L5.64227 11.693C4.86547 11.6231 4.08366 11.7511 3.36928 12.0652C2.65489 12.3792 2.03105 12.8691 1.55557 13.4896C1.08008 14.11 0.768336 14.8408 0.649215 15.6144C0.530094 16.3879 0.607453 17.1791 0.874125 17.9146C1.1408 18.6501 1.58815 19.3062 2.17474 19.8221C2.76132 20.3379 3.46816 20.6968 4.22974 20.8655C4.99133 21.0342 5.78302 21.0072 6.53146 20.7871C7.2799 20.567 7.96086 20.1608 8.51126 19.6063H8.50874Z" fill="#1E1B1B"/>
</svg>
