<svg width="31" height="38" viewBox="0 0 31 38" fill="none" xmlns="http://www.w3.org/2000/svg">
<path d="M17.5201 5.70416V0.269287H0.515869V37.6101H17.5201V32.1752C14.0368 32.1752 10.6962 30.7807 8.23307 28.2986C5.76999 25.8165 4.38625 22.4499 4.38625 18.9397C4.38625 15.4294 5.76999 12.0629 8.23307 9.58075C10.6962 7.09861 14.0368 5.70416 17.5201 5.70416Z" fill="#1E1B1B"/>
<path d="M17.5203 5.7041V32.1751C21.0036 32.1751 24.3442 30.7807 26.8073 28.2985C29.2704 25.8164 30.6542 22.4499 30.6542 18.9396C30.6542 15.4293 29.2704 12.0628 26.8073 9.58069C24.3442 7.09855 21.0036 5.7041 17.5203 5.7041Z" fill="#1E1B1B"/>
</svg>
