<svg width="31" height="31" viewBox="0 0 31 31" fill="none" xmlns="http://www.w3.org/2000/svg">
<path d="M26.0005 4.54586C23.1239 1.62414 19.2989 0.0151367 15.2308 0.0151367C11.1626 0.0151367 7.33762 1.62414 4.46102 4.54586C1.58425 7.4674 0 11.3522 0 15.4839C0 19.6156 1.58425 23.5004 4.46102 26.4219C7.33762 29.3436 11.1626 30.9526 15.2308 30.9526C19.2989 30.9526 23.1239 29.3436 26.0005 26.4219C28.8773 23.5004 30.4615 19.6156 30.4615 15.4839C30.4615 11.3522 28.8773 7.4674 26.0005 4.54586ZM15.2308 28.5356C8.14489 28.5356 2.37981 22.6805 2.37981 15.4839C2.37981 8.28729 8.14489 2.43213 15.2308 2.43213C22.3166 2.43213 28.0817 8.28729 28.0817 15.4839C28.0817 22.6805 22.3166 28.5356 15.2308 28.5356ZM17.5117 16.1741L21.8411 20.5486L20.1625 22.2624L15.7813 17.835C15.6045 17.8778 15.4204 17.9009 15.2308 17.9009C13.9165 17.9009 12.851 16.8187 12.851 15.4839C12.851 14.6145 13.3031 13.8526 13.9814 13.4268V4.90955H15.1713H16.3612V13.3566C17.1051 13.7654 17.6106 14.5645 17.6106 15.4839C17.6106 15.7237 17.5756 15.9552 17.5117 16.1741Z" fill="#E2E6E9"/>
</svg>
