<svg width="108" height="22" viewBox="0 0 108 22" fill="none" xmlns="http://www.w3.org/2000/svg">
<path d="M0.25 1.51538H4.05693V16.8808H0.25V1.51538ZM5.56701 11.0792C5.56701 7.279 7.90192 5.01156 11.5058 5.01156C15.1097 5.01156 17.4446 7.279 17.4446 11.0792C17.4446 14.8794 15.1605 17.1595 11.5058 17.1595C7.85116 17.1595 5.56701 14.9427 5.56701 11.0792ZM13.625 11.0792C13.625 8.98909 12.8002 7.76036 11.5058 7.76036C10.2115 7.76036 9.39932 9.02709 9.39932 11.0792C9.39932 13.1313 10.1988 14.3727 11.5058 14.3727C12.8129 14.3727 13.625 13.2073 13.625 11.0919V11.0792ZM18.8786 17.6282H22.5332C22.7071 18.0139 23.0012 18.3332 23.3716 18.5387C23.742 18.7441 24.169 18.8246 24.589 18.7682C26.0356 18.7682 26.797 17.9829 26.797 16.8428V14.7147H26.7208C26.4175 15.3669 25.9253 15.9135 25.3078 16.2838C24.6903 16.6541 23.9758 16.8311 23.2565 16.7921C20.4775 16.7921 18.6375 14.6767 18.6375 11.0412C18.6375 7.40568 20.3886 5.1129 23.3073 5.1129C24.0491 5.08387 24.7821 5.28184 25.4081 5.68031C26.0341 6.07877 26.5231 6.65868 26.8097 7.34234V5.2269H30.6166V16.7541C30.6166 19.5283 28.1675 21.251 24.5509 21.251C21.1881 21.251 19.0943 19.7436 18.8786 17.6408V17.6282ZM26.8097 11.0665C26.8097 9.2171 25.9594 8.05171 24.6143 8.05171C23.2692 8.05171 22.4444 9.20443 22.4444 11.0665C22.4444 12.9286 23.2565 13.98 24.6143 13.98C25.9721 13.98 26.8097 12.9539 26.8097 11.0792V11.0665ZM32.0505 11.0665C32.0505 7.26634 34.3854 4.99889 37.9893 4.99889C41.5932 4.99889 43.9408 7.26634 43.9408 11.0665C43.9408 14.8667 41.6567 17.1468 37.9893 17.1468C34.322 17.1468 32.0505 14.9427 32.0505 11.0792V11.0665ZM40.1085 11.0665C40.1085 8.97642 39.2837 7.74769 37.9893 7.74769C36.695 7.74769 35.9463 9.02709 35.9463 11.0919C35.9463 13.1566 36.7457 14.3854 38.0401 14.3854C39.3345 14.3854 40.1085 13.2073 40.1085 11.0919V11.0665ZM45.3875 2.46543C45.3775 2.08175 45.4819 1.70374 45.6874 1.37934C45.8928 1.05494 46.1902 0.798749 46.5417 0.643246C46.8933 0.487742 47.2831 0.439929 47.6619 0.505867C48.0407 0.571804 48.3913 0.748524 48.6694 1.01362C48.9474 1.27872 49.1403 1.62026 49.2237 1.99495C49.3071 2.36963 49.2771 2.76059 49.1376 3.11825C48.9981 3.47592 48.7554 3.78419 48.4402 4.00398C48.125 4.22378 47.7515 4.3452 47.3671 4.35286C47.1122 4.37033 46.8565 4.33502 46.616 4.24913C46.3755 4.16324 46.1554 4.02864 45.9695 3.85377C45.7836 3.67891 45.6359 3.46755 45.5358 3.23299C45.4356 2.99844 45.3851 2.74574 45.3875 2.49077V2.46543ZM45.3875 5.25224H49.1944V16.8808H45.3875V5.25224ZM63.0135 11.0665C63.0135 14.8667 61.3258 17.0328 58.4325 17.0328C57.6906 17.0804 56.952 16.8993 56.3165 16.5142C55.6811 16.129 55.1794 15.5584 54.8794 14.8794H54.8033V20.605H50.9963V5.2269H54.8033V7.30434H54.8794C55.1655 6.61411 55.6576 6.0286 56.2888 5.62744C56.92 5.22627 57.6596 5.02891 58.4072 5.06222C61.3258 5.11289 63.0643 7.29167 63.0643 11.0919L63.0135 11.0665ZM59.2066 11.0665C59.2066 9.2171 58.3564 8.03904 57.024 8.03904C55.6916 8.03904 54.8413 9.22977 54.8286 11.0665C54.816 12.9033 55.6916 14.0813 57.024 14.0813C58.3564 14.0813 59.2066 12.9286 59.2066 11.0919V11.0665ZM69.5488 4.98622C72.7085 4.98622 74.6247 6.48096 74.7135 8.87508H71.2492C71.2492 8.05171 70.5639 7.53235 69.5107 7.53235C68.4574 7.53235 67.9879 7.9377 67.9879 8.53306C67.9879 9.12843 68.4067 9.31843 69.2569 9.49578L71.6933 9.9898C74.0156 10.4838 75.0054 11.4212 75.0054 13.182C75.0054 15.5887 72.81 17.1342 69.5741 17.1342C66.3383 17.1342 64.2191 15.5887 64.0541 13.22H67.7214C67.8356 14.0813 68.5209 14.588 69.6376 14.588C70.7543 14.588 71.2619 14.2207 71.2619 13.6126C71.2619 13.0046 70.9066 12.8779 69.9929 12.6879L67.7976 12.2192C65.5261 11.7506 64.3333 10.5472 64.3333 8.77374C64.3587 6.49363 66.4017 5.01156 69.5488 5.01156V4.98622ZM87.7078 16.8555H84.0405V14.6894H83.9643C83.7628 15.4166 83.318 16.0532 82.704 16.4933C82.09 16.9334 81.3436 17.1506 80.5889 17.1088C80.0105 17.1416 79.4318 17.0502 78.8918 16.8405C78.3519 16.6309 77.8633 16.3081 77.4592 15.8938C77.055 15.4795 76.7446 14.9834 76.5489 14.4391C76.3533 13.8948 76.2769 13.3149 76.3251 12.7386V5.2269H80.132V11.8646C80.132 13.2453 80.8427 13.98 82.0228 13.98C82.2995 13.9806 82.5732 13.9221 82.8254 13.8084C83.0777 13.6948 83.3027 13.5287 83.4853 13.3211C83.668 13.1136 83.8041 12.8695 83.8845 12.6052C83.9649 12.3409 83.9878 12.0624 83.9516 11.7886V5.2269H87.7586L87.7078 16.8555ZM89.5478 5.2269H93.2279V7.46901H93.304C93.506 6.75139 93.9407 6.12088 94.54 5.6762C95.1393 5.23152 95.8694 4.99778 96.616 5.01156C97.3756 4.95084 98.1302 5.17776 98.7298 5.64719C99.3294 6.11663 99.73 6.79416 99.8519 7.54502H99.928C100.158 6.78617 100.635 6.12535 101.283 5.66667C101.931 5.20799 102.713 4.97752 103.507 5.01156C104.024 4.9942 104.54 5.08576 105.02 5.2803C105.5 5.47484 105.933 5.768 106.292 6.14074C106.651 6.51347 106.928 6.95744 107.104 7.4438C107.28 7.93016 107.351 8.44803 107.313 8.96375V16.8808H103.507V9.97714C103.507 8.71041 102.936 8.12771 101.87 8.12771C101.632 8.1257 101.397 8.17461 101.179 8.27113C100.962 8.36765 100.768 8.50954 100.611 8.68722C100.453 8.86491 100.336 9.07425 100.266 9.30114C100.196 9.52803 100.176 9.76719 100.207 10.0025V16.8808H96.5906V9.92647C96.5906 8.76107 96.0196 8.12771 94.979 8.12771C94.7387 8.12779 94.501 8.17874 94.2818 8.27722C94.0625 8.37569 93.8667 8.51945 93.7072 8.699C93.5478 8.87856 93.4282 9.08983 93.3565 9.31888C93.2848 9.54793 93.2626 9.78955 93.2913 10.0278V16.8808H89.4844L89.5478 5.2269Z" fill="#1E1B1B"/>
</svg>
