<svg width="29" height="28" viewBox="0 0 29 28" fill="none" xmlns="http://www.w3.org/2000/svg">
<path d="M11.8339 1.92207C12.9657 -0.18558 15.9883 -0.18558 17.12 1.92207L19.3213 6.02141C19.7495 6.81876 20.5147 7.38021 21.4038 7.54932L25.9959 8.42269C28.3148 8.86372 29.2395 11.6862 27.6312 13.4139L24.3687 16.9187C23.7616 17.5709 23.4758 18.4591 23.5887 19.343L24.1938 24.0793C24.4955 26.4403 22.0592 28.1955 19.9152 27.1618L15.7798 25.1681C14.9566 24.7712 13.9974 24.7712 13.1742 25.1681L9.03878 27.1618C6.89472 28.1955 4.4585 26.4403 4.76015 24.0793L5.36527 19.343C5.47819 18.4592 5.1924 17.5709 4.5853 16.9187L1.32277 13.4139C-0.285542 11.6862 0.639208 8.86372 2.95809 8.42269L7.55016 7.54932C8.43927 7.38021 9.20452 6.81876 9.63268 6.02141L11.8339 1.92207Z" fill="#FFB648"/>
</svg>
