<svg width="36" height="35" viewBox="0 0 36 35" fill="none" xmlns="http://www.w3.org/2000/svg">
<path d="M33.6035 10.7278C32.9578 9.25379 32.103 7.88012 31.0656 6.64895C29.532 4.77461 27.6181 3.24574 25.45 2.16296C23.2818 1.08017 20.9085 0.468028 18.4862 0.366806C16.064 0.265584 13.6477 0.67758 11.3965 1.57568C9.14526 2.47379 7.11009 3.83763 5.42491 5.57746C3.73974 7.31728 2.44279 9.39363 1.61941 11.6699C0.796034 13.9461 0.464903 16.3706 0.647815 18.7837C0.830727 21.1969 1.52353 23.5441 2.68064 25.6707C3.83774 27.7973 5.4329 29.6552 7.36113 31.1222C8.59839 32.0822 9.96552 32.8626 11.4219 33.4403C13.4637 34.2755 15.6489 34.7058 17.8556 34.707C22.4104 34.6969 26.7755 32.8845 29.9939 29.6671C33.2123 26.4496 35.0215 22.0896 35.0248 17.5428C35.0281 15.1975 34.5442 12.877 33.6035 10.7278ZM17.8429 3.84947C19.8244 3.84926 21.7821 4.2816 23.5786 5.1162C23.1405 5.30515 22.6799 5.43713 22.2081 5.50889C20.6557 5.73322 19.2175 6.4527 18.1083 7.55994C16.9991 8.66718 16.2783 10.1028 16.0536 11.6525C15.955 12.5217 15.559 13.3302 14.9325 13.9417C14.306 14.5533 13.4874 14.9304 12.6147 15.0094C11.0622 15.2337 9.62405 15.9532 8.51485 17.0604C7.40564 18.1676 6.68489 19.6033 6.46016 21.153C6.38407 21.9794 6.03085 22.756 5.45767 23.3571C4.4687 21.2711 4.02443 18.9693 4.1662 16.6659C4.30797 14.3624 5.03117 12.1322 6.2685 10.1828C7.50584 8.23337 9.2171 6.62807 11.243 5.51629C13.2689 4.40452 15.5437 3.82241 17.8556 3.82414L17.8429 3.84947ZM7.34844 26.4099C7.50072 26.2706 7.653 26.1439 7.80527 25.9919C8.93422 24.8993 9.65889 23.457 9.86101 21.9004C9.94297 21.0254 10.3343 20.2081 10.965 19.5949C11.5719 18.9643 12.3888 18.5769 13.2619 18.5055C14.8143 18.2812 16.2525 17.5617 17.3617 16.4545C18.4709 15.3472 19.1917 13.9116 19.4164 12.3619C19.4713 11.4467 19.8647 10.5845 20.5204 9.94244C21.1423 9.32409 21.9669 8.95072 22.8426 8.89105C24.2689 8.69517 25.599 8.06225 26.6496 7.07963C27.8458 8.0703 28.8593 9.26207 29.6443 10.6011C29.5961 10.6662 29.5408 10.7257 29.4794 10.7785C28.8737 11.4146 28.0578 11.8106 27.1825 11.8932C25.6285 12.1136 24.1881 12.8318 23.0782 13.9398C21.9683 15.0477 21.2488 16.4855 21.028 18.0368C20.9386 18.9089 20.5499 19.7233 19.9278 20.342C19.3056 20.9607 18.4884 21.3456 17.6145 21.4317C16.0575 21.6543 14.6139 22.3723 13.4983 23.4791C12.3827 24.5859 11.6545 26.0225 11.4219 27.5753C11.3536 28.1944 11.1406 28.7888 10.8001 29.3107C9.49808 28.5391 8.33201 27.5591 7.34844 26.4099ZM17.8429 31.2995C16.5552 31.3009 15.2737 31.1218 14.0359 30.7675C14.4594 29.9796 14.7346 29.1209 14.8481 28.234C14.937 27.3639 15.3239 26.551 15.9435 25.9326C16.563 25.3141 17.3773 24.9279 18.2489 24.8392C19.8037 24.6174 21.2447 23.899 22.3564 22.7915C23.4682 21.6841 24.1908 20.2471 24.4162 18.6955C24.5051 17.8254 24.892 17.0126 25.5115 16.3941C26.1311 15.7757 26.9454 15.3895 27.817 15.3007C28.987 15.1488 30.1022 14.7139 31.0656 14.034C31.6005 16.0581 31.6639 18.1776 31.2508 20.23C30.8378 22.2824 29.9592 24.213 28.6826 25.8738C27.406 27.5346 25.7653 28.8814 23.8863 29.811C22.0073 30.7405 19.9399 31.228 17.8429 31.2362V31.2995Z" fill="#1E1B1B"/>
</svg>
