<svg width="39" height="39" viewBox="0 0 39 39" fill="none" xmlns="http://www.w3.org/2000/svg">
<path d="M38.3981 13.3487C38.3982 10.8275 37.6355 8.36504 36.2099 6.28387C34.7843 4.20271 32.7623 2.59986 30.4087 1.68528C28.0551 0.770693 25.4796 0.587014 23.0197 1.1583C20.5597 1.72958 18.33 3.0292 16.6225 4.88691H0.785645V38.2526H34.2231V22.6591C35.5355 21.4874 36.5857 20.0525 37.3051 18.4482C38.0245 16.844 38.3969 15.1063 38.3981 13.3487ZM31.9644 13.3487C31.9669 14.5568 31.6103 15.7385 30.9397 16.7442C30.2692 17.7499 29.3148 18.5345 28.1974 18.9986C27.08 19.4626 25.8498 19.5853 24.6624 19.3512C23.4751 19.117 22.3841 18.5365 21.5274 17.6831C20.6708 16.8298 20.087 15.7419 19.8499 14.5571C19.6129 13.3724 19.7333 12.1441 20.1958 11.0277C20.6584 9.91134 21.4423 8.95702 22.4485 8.28556C23.4546 7.6141 24.6376 7.25569 25.8479 7.25569C27.4679 7.25569 29.0217 7.89722 30.1684 9.03951C31.3151 10.1818 31.961 11.7315 31.9644 13.3487ZM27.7894 31.8302H7.21935V11.3092H13.4881C13.367 11.9824 13.3033 12.6647 13.2977 13.3487C13.3011 16.6703 14.6244 19.8548 16.9773 22.2036C19.3302 24.5523 22.5204 25.8733 25.8479 25.8766C26.4984 25.8732 27.1477 25.8181 27.7894 25.7119V31.8302Z" fill="#1E1B1B"/>
</svg>
