<svg width="35" height="30" viewBox="0 0 35 30" fill="none" xmlns="http://www.w3.org/2000/svg">
<path d="M0.850749 13.1456C1.78195 9.42507 3.9386 6.12121 6.9773 3.76006C10.016 1.3989 13.762 0.116211 17.6189 0.116211C21.4758 0.116211 25.2219 1.3989 28.2606 3.76006C31.2993 6.12121 33.4559 9.42507 34.3871 13.1456H32.8725C30.3174 13.1082 27.8147 13.8672 25.7159 15.3161C25.5948 15.4033 25.4683 15.4829 25.3372 15.5545H25.1605C25.0295 15.4829 24.903 15.4033 24.7819 15.3161C22.6644 13.9008 20.1706 13.1448 17.6189 13.1448C15.0673 13.1448 12.5735 13.9008 10.456 15.3161C10.3349 15.4033 10.2084 15.4829 10.0774 15.5545H9.90065C9.76959 15.4829 9.64312 15.4033 9.52199 15.3161C7.42314 13.8672 4.92045 13.1082 2.36538 13.1456H0.850749ZM30.1462 21.0123C30.9237 20.4104 31.8873 20.0955 32.8725 20.1215H34.9046V16.094H32.8725C31.1373 16.0732 29.4417 16.6101 28.0383 17.6247C27.2486 18.2035 26.2932 18.5157 25.312 18.5157C24.3308 18.5157 23.3754 18.2035 22.5857 17.6247C21.1467 16.629 19.4354 16.0952 17.682 16.0952C15.9287 16.0952 14.2174 16.629 12.7784 17.6247C11.9887 18.2035 11.0333 18.5157 10.0521 18.5157C9.07094 18.5157 8.11553 18.2035 7.32578 17.6247C5.90506 16.5971 4.1852 16.0595 2.42849 16.094H0.333252V20.1215H2.36538C3.35053 20.0955 4.31418 20.4104 5.09171 21.0123C6.52809 22.0087 8.23746 22.543 9.989 22.543C11.7406 22.543 13.4499 22.0087 14.8863 21.0123C15.6648 20.4123 16.6278 20.0976 17.6126 20.1215C18.5981 20.0934 19.5624 20.4085 20.339 21.0123C21.778 22.0081 23.4892 22.5418 25.2426 22.5418C26.9959 22.5418 28.7072 22.0081 30.1462 21.0123ZM30.1462 28.2141C30.9237 27.6122 31.8873 27.2973 32.8725 27.3233H34.9046V23.2958H32.8725C31.1373 23.2749 29.4417 23.8118 28.0383 24.8265C27.2486 25.4053 26.2932 25.7175 25.312 25.7175C24.3308 25.7175 23.3754 25.4053 22.5857 24.8265C21.1467 23.8308 19.4354 23.297 17.682 23.297C15.9287 23.297 14.2174 23.8308 12.7784 24.8265C11.9887 25.4053 11.0333 25.7175 10.0521 25.7175C9.07094 25.7175 8.11553 25.4053 7.32578 24.8265C5.90506 23.7989 4.1852 23.2613 2.42849 23.2958H0.333252V27.3233H2.36538C3.35053 27.2973 4.31418 27.6122 5.09171 28.2141C6.52809 29.2105 8.23746 29.7448 9.989 29.7448C11.7406 29.7448 13.4499 29.2105 14.8863 28.2141C15.6648 27.614 16.6278 27.2994 17.6126 27.3233C18.5981 27.2952 19.5624 27.6103 20.339 28.2141C21.778 29.2099 23.4892 29.7436 25.2426 29.7436C26.9959 29.7436 28.7072 29.2099 30.1462 28.2141Z" fill="#1E1B1B"/>
</svg>
